<?xml version="1.0" encoding="UTF-8" standalone="no"?>
<svg
   xmlns:dc="http://purl.org/dc/elements/1.1/"
   xmlns:cc="http://creativecommons.org/ns#"
   xmlns:rdf="http://www.w3.org/1999/02/22-rdf-syntax-ns#"
   xmlns:svg="http://www.w3.org/2000/svg"
   xmlns="http://www.w3.org/2000/svg"
   xmlns:sodipodi="http://sodipodi.sourceforge.net/DTD/sodipodi-0.dtd"
   xmlns:inkscape="http://www.inkscape.org/namespaces/inkscape"
   width="570pt"
   height="200pt"
   viewBox="0 0 570 200"
   version="1.1"
   id="svg3021"
   inkscape:version="0.48.4 r9939"
   sodipodi:docname="tachusoVioleta.svg">
  <metadata
     id="metadata3055">
    <rdf:RDF>
      <cc:Work
         rdf:about="">
        <dc:format>image/svg+xml</dc:format>
        <dc:type
           rdf:resource="http://purl.org/dc/dcmitype/StillImage" />
        <dc:title></dc:title>
      </cc:Work>
    </rdf:RDF>
  </metadata>
  <defs
     id="defs3053" />
  <sodipodi:namedview
     pagecolor="#ffffff"
     bordercolor="#666666"
     borderopacity="1"
     objecttolerance="10"
     gridtolerance="10"
     guidetolerance="10"
     inkscape:pageopacity="0"
     inkscape:pageshadow="2"
     inkscape:window-width="1366"
     inkscape:window-height="705"
     id="namedview3051"
     showgrid="true"
     inkscape:zoom="1.6926316"
     inkscape:cx="356.25"
     inkscape:cy="125"
     inkscape:window-x="-8"
     inkscape:window-y="-8"
     inkscape:window-maximized="1"
     inkscape:current-layer="svg3021">
    <inkscape:grid
       type="xygrid"
       id="grid3057" />
  </sodipodi:namedview>
  <path
     d=" M 61.61 7.64 C 74.52 1.71 88.94 -0.22 103.04 0.23 C 125.07 0.02 146.31 9.06 163.37 22.62 C 175.72 32.64 185.34 45.81 191.83 60.30 C 199.25 76.87 201.46 95.54 199.17 113.49 C 196.70 133.94 186.95 153.12 173.22 168.30 C 156.23 186.38 132.47 198.01 107.70 200.00 L 92.13 200.00 C 68.11 198.01 45.08 186.98 28.21 169.82 C 11.48 152.26 0.78 128.76 0.00 104.39 L 0.00 95.68 C 0.84 71.81 11.04 48.67 27.32 31.31 C 36.88 21.07 48.81 13.20 61.61 7.64 Z"
     id="path3025"
     fill="#8c0095" />
  <path
     d="m 83.49,23.79 c 4.54,8.05 8.87,16.22 13.22,24.37 4.13,-7.16 8.21,-14.35 12.26,-21.56 0.06,13.19 0.01,26.37 0.03,39.55 6.93,0.91 13.88,1.68 20.78,2.82 -0.57,-5.38 0.66,-11.61 5.59,-14.65 5.34,-4.04 12.36,-3.15 18.61,-2.8 7.18,0.62 13.46,5.26 17.33,11.17 2.85,4.35 3.59,10.2 1.33,14.97 -1.88,4.44 -6.1,7.3 -10.44,9.01 5.08,6.03 8.55,13.52 9.13,21.43 1.33,15.78 -5.55,31.61 -16.8,42.53 -12.36,12.28 -30.13,18.66 -47.46,17.86 -11.52,-0.11 -23.01,-2.32 -33.92,-5.96 -13.13,-4.47 -26.2,-12.67 -31.76,-25.94 -5.5,-11.51 -3.47,-24.82 0.03,-36.6 -6.04,0.16 -12.37,0.34 -17.87,-2.63 -6.93,-3.05 -10.44,-11.17 -9.35,-18.44 0.42,-7.84 3.33,-16.18 10.13,-20.7 6.61,-4.09 15.56,-6.6 22.7,-2.35 8.04,4.3 11.56,13.32 14.33,21.47 4.61,-2.54 9.29,-4.96 13.9,-7.49 C 70.19,57.98 65.04,46.14 60.12,34.2 c 6.87,5.94 13.63,12.02 20.63,17.81 0.96,-9.4 1.81,-18.82 2.74,-28.22 z"
     id="path3027"
     fill="transparent"
     inkscape:connector-curvature="0" />
  <path
     fill="#8c0095"
     d=" M 356.24 50.01 C 360.33 50.00 364.42 49.99 368.51 50.01 C 368.48 60.29 368.55 70.57 368.46 80.85 C 374.59 78.03 381.49 78.40 388.03 78.91 C 392.81 79.42 398.05 80.94 400.96 85.06 C 405.25 90.33 406.01 97.43 405.77 103.99 C 405.74 119.32 405.76 134.66 405.76 149.99 C 401.67 150.00 397.58 150.01 393.49 149.99 C 393.48 132.65 393.52 115.31 393.48 97.96 C 393.48 94.20 390.94 89.98 386.91 89.60 C 382.78 89.06 378.57 89.12 374.45 89.69 C 371.00 90.07 368.37 93.60 368.51 96.97 C 368.50 114.64 368.50 132.32 368.51 149.99 C 364.42 150.01 360.33 150.00 356.24 149.99 C 356.25 116.66 356.25 83.34 356.24 50.01 Z"
     id="path3029" />
  <path
     fill="#8c0095"
     d=" M 219.25 61.25 C 223.33 61.24 227.42 61.24 231.50 61.25 C 231.51 66.92 231.50 72.58 231.51 78.24 C 237.00 78.25 242.50 78.24 247.99 78.24 C 248.00 81.83 248.00 85.41 248.00 89.00 C 242.50 89.00 237.00 88.99 231.50 89.00 C 231.51 103.68 231.49 118.36 231.51 133.03 C 231.30 135.52 232.50 138.16 235.06 138.84 C 239.36 139.23 243.69 138.90 248.00 139.00 C 248.00 142.59 248.00 146.17 247.99 149.76 C 242.30 149.66 236.60 149.94 230.91 149.64 C 223.70 148.52 219.23 141.00 219.28 134.10 C 219.19 119.07 219.27 104.04 219.24 89.00 C 216.16 89.00 213.08 89.00 210.00 89.00 C 210.00 85.41 210.00 81.83 210.01 78.24 C 213.08 78.25 216.16 78.25 219.24 78.24 C 219.25 72.58 219.24 66.91 219.25 61.25 Z"
     id="path3031" />
  <path
     fill="#8c0095"
     d=" M 256.00 78.50 C 265.42 78.71 274.99 77.83 284.28 79.73 C 293.00 81.47 298.08 90.63 298.21 99.00 C 298.35 111.33 298.15 123.66 298.30 135.99 C 298.22 139.65 302.74 140.18 305.52 140.10 C 305.50 143.39 305.50 146.69 305.51 149.99 C 302.31 149.97 299.10 150.12 295.91 149.94 C 293.16 149.73 291.28 147.47 289.50 145.64 C 287.40 148.17 284.54 150.43 281.04 150.02 C 272.65 149.59 263.09 151.73 255.94 146.09 C 249.95 141.80 250.21 133.53 250.22 126.94 C 249.90 119.34 253.10 110.65 260.67 107.69 C 268.73 104.67 277.57 106.12 285.98 105.75 C 285.87 102.27 286.40 98.74 285.75 95.30 C 284.97 91.80 281.42 89.77 278.05 89.55 C 270.72 88.96 263.35 89.37 256.00 89.25 C 256.00 85.67 256.00 82.08 256.00 78.50 Z"
     id="path3033" />
  <path
     fill="#8c0095"
     d=" M 316.60 82.67 C 319.94 80.39 323.97 79.34 327.96 78.93 C 335.04 78.33 342.15 78.52 349.25 78.50 C 349.25 82.08 349.25 85.66 349.25 89.25 C 342.14 89.45 334.97 88.76 327.92 89.82 C 324.41 90.34 321.50 93.42 321.49 97.02 C 321.53 108.36 321.45 119.71 321.54 131.06 C 321.47 135.16 324.84 138.92 328.95 139.15 C 335.71 139.40 342.48 139.16 349.25 139.25 C 349.25 142.83 349.25 146.41 349.25 150.00 C 341.76 149.84 334.24 150.35 326.77 149.71 C 321.23 148.85 315.66 146.16 312.49 141.38 C 309.88 136.73 309.42 131.23 309.48 126.00 C 309.54 117.00 309.44 108.00 309.52 99.00 C 309.68 92.94 311.80 86.61 316.60 82.67 Z"
     id="path3035" />
  <path
     fill="#8c0095"
     d=" M 411.75 78.50 C 415.75 78.49 419.74 78.50 423.74 78.49 C 423.78 95.69 423.74 112.89 423.75 130.09 C 423.63 133.48 425.11 137.22 428.52 138.44 C 431.85 139.84 435.60 139.10 439.11 139.25 C 443.52 139.57 447.42 135.48 447.23 131.14 C 447.27 113.59 447.22 96.04 447.26 78.49 C 451.25 78.50 455.25 78.49 459.25 78.50 C 459.26 102.33 459.25 126.16 459.25 149.99 C 455.50 150.00 451.75 150.00 448.00 150.00 C 448.00 149.14 448.01 147.44 448.02 146.58 C 445.30 148.17 442.44 149.83 439.21 149.95 C 432.56 150.20 425.28 150.44 419.58 146.40 C 413.69 142.80 411.95 135.41 411.77 128.97 C 411.72 112.15 411.76 95.33 411.75 78.50 Z"
     id="path3037" />
  <path
     fill="#8c0095"
     d=" M 478.31 79.32 C 486.46 78.07 494.77 78.63 503.00 78.50 C 503.00 82.08 503.00 85.67 502.99 89.25 C 496.14 89.41 489.24 88.87 482.42 89.64 C 479.38 89.88 477.17 92.99 477.48 95.93 C 477.64 99.04 476.84 102.56 478.67 105.31 C 481.47 107.95 485.56 107.16 489.06 107.51 C 494.69 107.72 500.94 109.99 503.57 115.34 C 506.55 120.40 505.68 126.44 505.76 132.03 C 505.83 136.95 504.43 142.24 500.56 145.56 C 496.80 148.67 491.80 150.05 486.98 150.01 C 479.98 150.00 472.99 150.00 466.00 150.00 C 465.99 146.41 465.99 142.83 466.01 139.24 C 473.34 139.21 480.69 139.31 488.02 139.22 C 490.80 139.20 493.67 137.00 493.66 134.06 C 493.75 130.20 494.02 126.27 493.50 122.43 C 492.52 118.78 488.08 118.75 485.02 118.77 C 479.02 119.05 472.27 117.63 468.30 112.77 C 464.54 107.25 465.17 100.21 465.35 93.88 C 465.50 86.69 471.27 80.45 478.31 79.32 Z"
     id="path3039" />
  <path
     fill="#8c0095"
     d=" M 525.41 79.65 C 533.19 78.20 541.46 78.05 549.13 80.20 C 557.01 82.38 561.18 90.87 561.45 98.54 C 561.59 108.38 561.46 118.23 561.51 128.07 C 561.49 134.65 559.69 142.10 553.80 145.88 C 546.88 150.95 537.88 150.12 529.80 149.86 C 523.29 149.08 516.01 146.12 513.31 139.67 C 511.30 135.43 510.96 130.65 510.98 126.02 C 511.02 117.35 510.98 108.69 511.00 100.02 C 511.01 93.97 512.85 87.66 517.31 83.38 C 519.62 81.45 522.52 80.37 525.41 79.65 Z"
     id="path3041" />
  <path
     fill="transparent"
     d="m 530.41,89.66 c 4.5,-0.5 9.16,-0.67 13.6,0.39 3.51,0.87 5.81,4.42 5.54,7.98 -0.14,10.97 0.03,21.94 -0.09,32.91 0.12,4.16 -3.29,8.02 -7.48,8.22 -3.71,0.18 -7.44,0.16 -11.14,0.01 -4.24,-0.17 -7.68,-4.05 -7.56,-8.25 -0.07,-11.31 -0.01,-22.63 -0.04,-33.94 0.01,-3.91 3.43,-6.94 7.17,-7.32 z"
     id="path3043"
     inkscape:connector-curvature="0" />
  <path
     fill="transparent"
     d="m 262.48,125.99 c -0.39,-4.05 2.16,-8.92 6.59,-9.21 5.62,-0.56 11.28,-0.16 16.93,-0.28 -0.28,6.6 0.68,13.33 -0.72,19.83 -1.08,4.11 -6.17,2.69 -9.3,2.92 -4.07,-0.36 -8.99,1.19 -12.29,-1.96 -1.94,-3.41 -0.98,-7.56 -1.21,-11.3 z"
     id="path3047"
     inkscape:connector-curvature="0" />
  <path
     d=" M 114.46 126.61 C 118.34 125.95 122.67 125.89 126.28 127.65 C 128.88 128.90 128.47 132.79 126.22 134.18 C 121.02 137.84 114.30 138.76 108.14 137.67 C 105.71 137.11 102.89 134.83 104.10 132.07 C 106.11 128.35 110.76 127.70 114.46 126.61 Z"
     id="path3049"
     fill="#8c0095" />
</svg>
